<svg id="Calque_1" data-name="Calque 1" xmlns="http://www.w3.org/2000/svg" xmlns:xlink="http://www.w3.org/1999/xlink" viewBox="0 0 545 545"><defs><style>.cls-1{fill:url(#Dégradé_sans_nom_4);}.cls-2{fill:#fff;}</style><linearGradient id="Dégradé_sans_nom_4" x1="189.03" y1="355.41" x2="537.93" y2="8.84" gradientUnits="userSpaceOnUse"><stop offset="0" stop-color="#169af7"/><stop offset="0.21" stop-color="#25a5f7"/><stop offset="0.61" stop-color="#4dc2f9"/><stop offset="1" stop-color="#78e1fa"/></linearGradient></defs><title>ICONES 1</title><rect class="cls-1" width="545" height="545" rx="90.87"/><path class="cls-2" d="M339.5,141.72s22.71-34.66,50.48-13.39c.68.53,1.36,1,2.07,1.54,3.49,2.45,17.52,14.43,6.65,42.68C386.37,204.62,297.57,376,297.57,376l-38.23-81.39Z" transform="translate(-13.78 -20.78)"/><path class="cls-2" d="M184.84,264.1C182.6,255,180.43,234.17,203,224a25,25,0,0,1,9.79-2.19c8.75-.2,25.66,2,34.1,20.38.92,2,2.45,5.28,3.48,7.24l47.15,89.82a33.52,33.52,0,0,1,2.56,6.31c2.4,8.26,5.26,29.37-11.6,40.38a30.52,30.52,0,0,1-13.8,4.74,42.6,42.6,0,0,1-9.75-.18,34.18,34.18,0,0,1-25.55-18.43l-52-101.19A31.66,31.66,0,0,1,184.84,264.1Z" transform="translate(-13.78 -20.78)"/><path class="cls-2" d="M231.6,225.72s-34.2-18.24-53.07,23.87c-4.26,9.52-8.51,19-13.07,28.41l-39.93,81.9,42.55,65.47,76.3-151.09S261,242.33,231.6,225.72Z" transform="translate(-13.78 -20.78)"/><path class="cls-2" d="M54.11,314.67c-2.24-9.15-4.41-29.94,18.14-40.08a25.27,25.27,0,0,1,9.79-2.2c8.75-.2,25.66,2,34.1,20.38.92,2,2.45,5.29,3.48,7.25l47.15,89.81a33.61,33.61,0,0,1,2.56,6.32c2.4,8.25,5.26,29.37-11.6,40.38a30.59,30.59,0,0,1-13.8,4.73,42,42,0,0,1-9.75-.18,34.16,34.16,0,0,1-25.55-18.42l-52-101.2A31.09,31.09,0,0,1,54.11,314.67Z" transform="translate(-13.78 -20.78)"/><path class="cls-2" d="M503.53,152.82c-11.37,29.56-88.24,176-100.19,198.68l-.54,1.05-8.32,16.36a53.09,53.09,0,0,1-13.66,17.18c-9.25,7.54-23.54,13.82-39.52,1.61-.69-.53-1.37-1.05-2.08-1.54-3.49-2.46-17.53-14.42-6.68-42.68,10.22-26.68,75.28-150.76,96.83-191.7L444.32,122l0,0c.56-.85,23.05-34.37,50.46-13.38.69.53,1.37,1,2.08,1.56C500.37,112.59,514.4,124.56,503.53,152.82Z" transform="translate(-13.78 -20.78)"/></svg>