<svg id="Calque_1" data-name="Calque 1" xmlns="http://www.w3.org/2000/svg" xmlns:xlink="http://www.w3.org/1999/xlink" viewBox="0 0 809.2 598.49"><defs><style>.cls-1{fill:url(#Dégradé_sans_nom_52);}.cls-2{fill:url(#Dégradé_sans_nom_12);}.cls-3{fill:url(#Dégradé_sans_nom_10);}.cls-4{fill:url(#Dégradé_sans_nom_7);}.cls-5{fill:url(#Dégradé_sans_nom_44);}.cls-6,.cls-7{fill:#11bff3;stroke:#11bff3;}.cls-6,.cls-7,.cls-8{stroke-miterlimit:10;}.cls-7{stroke-width:7px;}.cls-8{fill:#109ef6;stroke:#3fa9f5;stroke-width:2px;}</style><linearGradient id="Dégradé_sans_nom_52" x1="151.19" y1="664.96" x2="1320.65" y2="-1414.73" gradientUnits="userSpaceOnUse"><stop offset="0.15" stop-color="#0c93f6"/><stop offset="0.19" stop-color="#37afd4"/><stop offset="0.24" stop-color="#67ceae"/><stop offset="0.28" stop-color="#86e296"/><stop offset="0.3" stop-color="#91e98d"/><stop offset="0.52" stop-color="#6deafd" stop-opacity="0.8"/></linearGradient><linearGradient id="Dégradé_sans_nom_12" x1="326.59" y1="367.64" x2="259.9" y2="229.77" gradientUnits="userSpaceOnUse"><stop offset="0" stop-color="#0c93f6"/><stop offset="0.17" stop-color="#29adf8"/><stop offset="0.39" stop-color="#47c8fa"/><stop offset="0.6" stop-color="#5cdbfc"/><stop offset="0.81" stop-color="#69e6fd"/><stop offset="1" stop-color="#6deafd"/></linearGradient><linearGradient id="Dégradé_sans_nom_10" x1="160.73" y1="414.97" x2="239.18" y2="275.73" gradientUnits="userSpaceOnUse"><stop offset="0.15" stop-color="#0c93f6"/><stop offset="0.43" stop-color="#28adf8"/><stop offset="1" stop-color="#6deafd"/></linearGradient><linearGradient id="Dégradé_sans_nom_7" x1="151.94" y1="418.42" x2="67.07" y2="252.72" gradientUnits="userSpaceOnUse"><stop offset="0" stop-color="#0c93f6"/><stop offset="0.08" stop-color="#1fa4f7"/><stop offset="0.22" stop-color="#3bbdf9"/><stop offset="0.37" stop-color="#51d1fb"/><stop offset="0.54" stop-color="#61dffc"/><stop offset="0.73" stop-color="#6ae7fd"/><stop offset="1" stop-color="#6deafd"/></linearGradient><linearGradient id="Dégradé_sans_nom_44" x1="407.9" y1="432.52" x2="666.64" y2="-48.87" gradientUnits="userSpaceOnUse"><stop offset="0" stop-color="#0c93f6"/><stop offset="0.53" stop-color="#44c5fa" stop-opacity="0.88"/><stop offset="0.88" stop-color="#6deafd" stop-opacity="0.8"/></linearGradient></defs><title>web SIGNERR</title><path class="cls-1" d="M418.38,86.47s29.38-44.84,65.3-17.32c.89.68,1.77,1.35,2.69,2,4.51,3.17,22.65,18.66,8.6,55.21-16,41.49-130.84,263.27-130.84,263.27L314.66,284.32Z" transform="translate(-47.42 -34.68)"/><path class="cls-2" d="M218.28,244.81c-2.9-11.84-5.7-38.73,23.46-51.86a32.82,32.82,0,0,1,12.68-2.84c11.31-.25,33.19,2.59,44.11,26.37,1.19,2.6,3.17,6.84,4.5,9.37l61,116.21a43.47,43.47,0,0,1,3.31,8.16c3.1,10.69,6.8,38-15,52.25a39.62,39.62,0,0,1-17.85,6.12,54.76,54.76,0,0,1-12.62-.23,44.19,44.19,0,0,1-33.06-23.84L221.58,253.6A40.7,40.7,0,0,1,218.28,244.81Z" transform="translate(-47.42 -34.68)"/><path class="cls-3" d="M278.77,195.15s-44.24-23.6-68.66,30.89c-5.51,12.31-11,24.63-16.91,36.75l-51.66,106,55.05,84.71L295.31,258S316.8,216.64,278.77,195.15Z" transform="translate(-47.42 -34.68)"/><path class="cls-4" d="M49.15,310.23c-2.9-11.84-5.71-38.73,23.46-51.86a32.73,32.73,0,0,1,12.67-2.84c11.32-.25,33.19,2.59,44.11,26.37,1.2,2.6,3.18,6.84,4.51,9.37l61,116.21a43.47,43.47,0,0,1,3.31,8.16c3.1,10.69,6.81,38-15,52.25A39.58,39.58,0,0,1,165.35,474a54.68,54.68,0,0,1-12.61-.23,44.18,44.18,0,0,1-33.06-23.84L52.45,319A39.68,39.68,0,0,1,49.15,310.23Z" transform="translate(-47.42 -34.68)"/><path class="cls-5" d="M630.59,100.83C615.88,139.08,516.43,328.52,501,357.88c-.26.5-.5,1-.7,1.36L489.5,380.4a68.62,68.62,0,0,1-17.66,22.24c-12,9.75-30.46,17.87-51.13,2.07-.9-.68-1.77-1.35-2.7-2-4.51-3.18-22.67-18.65-8.65-55.21,13.23-34.53,97.4-195.06,125.29-248L554,61l0,0c.72-1.1,29.81-44.47,65.28-17.31.89.69,1.77,1.36,2.69,2C626.51,48.78,644.65,64.27,630.59,100.83Z" transform="translate(-47.42 -34.68)"/><path class="cls-6" d="M216.66,515.24a10.63,10.63,0,0,1,3.87-6.23,10.08,10.08,0,0,1,6-1.94,12.32,12.32,0,0,1,4.3.79,11.95,11.95,0,0,1,6.67,5.95,10.38,10.38,0,0,1,1.08,4.73,15.41,15.41,0,0,1-.72,4.3l-20.22,62.67a10.68,10.68,0,0,1-4.52,6.17,12.65,12.65,0,0,1-13.76-.07,11.64,11.64,0,0,1-4.67-6.1L183.82,554l-10.18,31.55a10.72,10.72,0,0,1-4.52,6.17,12.67,12.67,0,0,1-13.77-.07,11.63,11.63,0,0,1-4.66-6.1l-21.65-63a15.18,15.18,0,0,1-.72-4.16,9.94,9.94,0,0,1,1.08-4.66,12,12,0,0,1,2.79-3.59,12.23,12.23,0,0,1,3.87-2.29,12.77,12.77,0,0,1,4.45-.79A10.4,10.4,0,0,1,146.6,509a10.53,10.53,0,0,1,4,6.23l11.61,41.88,10.47-41.88a10.89,10.89,0,0,1,4.23-6.31,11.47,11.47,0,0,1,6.67-2.15,11.77,11.77,0,0,1,6.74,2.15,10.85,10.85,0,0,1,4.3,6.31l11.62,41.88Z" transform="translate(-47.42 -34.68)"/><path class="cls-7" d="M298.32,574.68a3.81,3.81,0,0,1,3.08,6.05,62.42,62.42,0,0,1-6.51,7.2c-5.12,5-12.3,6.2-19.42,6.32-9,.11-16.89-3.1-23.79-9.77s-10.45-14.7-10.57-24a33.16,33.16,0,0,1,10.34-25.28c7.24-7.12,15.63-10.45,25.4-9.88a33.81,33.81,0,0,1,22.75,10.8q9.3,9.82,9.3,22.06v.91a3.8,3.8,0,0,1-3.8,3.8H254.69a3.8,3.8,0,0,0-3.66,4.86,23.64,23.64,0,0,0,7.43,11.46,25.14,25.14,0,0,0,17.35,6.32c9.31-.11,16.2-4,19.29-9.1a3.74,3.74,0,0,1,3.22-1.74Zm-3.17-19.84a3.82,3.82,0,0,0,3.51-5.31,25.85,25.85,0,0,0-39.74-9.74,23.93,23.93,0,0,0-7.25,9.75,3.82,3.82,0,0,0,3.5,5.3Z" transform="translate(-47.42 -34.68)"/><path class="cls-7" d="M322.12,559.32V508.5a4.45,4.45,0,0,1,4.45-4.45h4.17v33.09a32,32,0,0,1,24.13-11.6,31.22,31.22,0,0,1,24.36,9.77,34.41,34.41,0,0,1,.8,48.37,32.61,32.61,0,0,1-23.21,10.45c-9.42.35-17.58-3-24.59-9.88s-10.34-15-10.11-24.47Zm51.71,18a25.34,25.34,0,0,0,6.89-18.16,24.72,24.72,0,0,0-7.58-17.69,23.8,23.8,0,0,0-17.7-7.47,22.76,22.76,0,0,0-17.12,7.36,26.5,26.5,0,0,0,0,36.65c5.17,5.28,11.26,7.81,18.39,7.47A23.89,23.89,0,0,0,373.83,577.36Z" transform="translate(-47.42 -34.68)"/><path class="cls-8" d="M412.66,581c10.81,4.72,20.55,7,29.53,7,11.12,0,18.58-4.42,18.58-12.18,0-4.12-1.83-6.86-6.55-8.68-4.41-2-7.92-2.74-15.38-4.42a15.34,15.34,0,0,0-2.28-.46c-16.29-3.5-23.29-8.37-23.29-19.48,0-13.25,10.35-20.86,27.86-20.86a80.15,80.15,0,0,1,27.1,4.87L465.64,535c-9.59-3-18.12-4.57-25.27-4.57q-16.9,0-16.9,11.88c0,6.7,4.41,8.68,18.88,11.88,7.91,1.82,11.57,2.58,16.9,4.87a18.14,18.14,0,0,1,6.24,3.65,15.93,15.93,0,0,1,5,12.18c0,14-11.26,21.77-28.92,21.77-9.9,0-20.41-2.28-31.37-7Z" transform="translate(-47.42 -34.68)"/><path class="cls-8" d="M497.77,498.64a7.62,7.62,0,0,1-15.23,0C481.93,488.75,498.37,488.75,497.77,498.64Zm-2.29,95.77H485V524.07h10.5Z" transform="translate(-47.42 -34.68)"/><path class="cls-8" d="M582,525.59v67.3c0,11.87-3.35,21.31-10.2,28.47s-16,10.81-27.86,10.81a72,72,0,0,1-26.34-5.33l2-8.53c9.59,2.9,17.66,4.42,24.21,4.42,17,0,27.71-11,27.86-29.69a151.14,151.14,0,0,1-26.34,2.13c-10.51,0-18.88-3.35-25.43-10-6.39-6.85-9.59-15.53-9.59-26.18q0-16.91,9.59-27c6.4-6.86,15.08-10.21,26.19-10.21A172.64,172.64,0,0,1,582,525.59Zm-61.35,33.65c0,7.76,2.43,14.31,7.15,19.34s11.12,7.61,18.88,7.61a141.39,141.39,0,0,0,25-2.13V532.75a152.93,152.93,0,0,0-24.36-2C530.2,530.77,520.61,542,520.61,559.24Z" transform="translate(-47.42 -34.68)"/><path class="cls-8" d="M668.44,550.56v43.85h-10.5V553c0-13.55-7.46-21.62-20.1-21.62a156,156,0,0,0-26.19,2.13v60.9h-10.5V525.59a178.44,178.44,0,0,1,38.52-3.81C657.48,521.78,668.44,532.75,668.44,550.56Z" transform="translate(-47.42 -34.68)"/><path class="cls-8" d="M742.44,530.92c6.24,5.94,9.28,14,9.44,24.21a52.7,52.7,0,0,1-.61,8.07H692.65c1.68,14.61,11.88,24,27.25,24,6.86,0,15.53-1.37,25.89-4l1.67,8.52c-10.81,3.2-20.09,4.87-27.86,4.87-11.72,0-21-3.5-27.86-10.35s-10.2-16.14-10.2-27.25,3.35-20.1,10.2-27,15.53-10.36,26.34-10.36C728.13,521.78,736.2,524.83,742.44,530.92ZM692.35,555h49.94c-.16-15.23-9.75-24.67-23.91-24.67C703.31,530.31,693.56,539.9,692.35,555Z" transform="translate(-47.42 -34.68)"/><path class="cls-8" d="M805.62,532.6a237.3,237.3,0,0,0-28.77,1.52v60.29H766.34V526.05a221.64,221.64,0,0,1,39.28-3.66Z" transform="translate(-47.42 -34.68)"/><path class="cls-8" d="M855.62,532.6a237.3,237.3,0,0,0-28.77,1.52v60.29H816.34V526.05a221.64,221.64,0,0,1,39.28-3.66Z" transform="translate(-47.42 -34.68)"/></svg>