<svg id="Calque_1" data-name="Calque 1" xmlns="http://www.w3.org/2000/svg" xmlns:xlink="http://www.w3.org/1999/xlink" viewBox="0 0 588.42 439.59"><defs><style>.cls-1{fill:url(#Dégradé_sans_nom_52);}.cls-2{fill:url(#Dégradé_sans_nom_12);}.cls-3{fill:url(#Dégradé_sans_nom_10);}.cls-4{fill:url(#Dégradé_sans_nom_7);}.cls-5{fill:url(#Dégradé_sans_nom_44);}</style><linearGradient id="Dégradé_sans_nom_52" x1="122.4" y1="650.71" x2="1291.85" y2="-1428.98" gradientUnits="userSpaceOnUse"><stop offset="0.15" stop-color="#0c93f6"/><stop offset="0.19" stop-color="#37afd4"/><stop offset="0.24" stop-color="#67ceae"/><stop offset="0.28" stop-color="#86e296"/><stop offset="0.3" stop-color="#91e98d"/><stop offset="0.52" stop-color="#6deafd" stop-opacity="0.8"/></linearGradient><linearGradient id="Dégradé_sans_nom_12" x1="297.79" y1="353.4" x2="231.1" y2="215.52" gradientUnits="userSpaceOnUse"><stop offset="0" stop-color="#0c93f6"/><stop offset="0.17" stop-color="#29adf8"/><stop offset="0.39" stop-color="#47c8fa"/><stop offset="0.6" stop-color="#5cdbfc"/><stop offset="0.81" stop-color="#69e6fd"/><stop offset="1" stop-color="#6deafd"/></linearGradient><linearGradient id="Dégradé_sans_nom_10" x1="131.94" y1="400.72" x2="210.38" y2="261.48" gradientUnits="userSpaceOnUse"><stop offset="0.15" stop-color="#0c93f6"/><stop offset="0.43" stop-color="#28adf8"/><stop offset="1" stop-color="#6deafd"/></linearGradient><linearGradient id="Dégradé_sans_nom_7" x1="123.14" y1="404.17" x2="38.27" y2="238.47" gradientUnits="userSpaceOnUse"><stop offset="0" stop-color="#0c93f6"/><stop offset="0.08" stop-color="#1fa4f7"/><stop offset="0.22" stop-color="#3bbdf9"/><stop offset="0.37" stop-color="#51d1fb"/><stop offset="0.54" stop-color="#61dffc"/><stop offset="0.73" stop-color="#6ae7fd"/><stop offset="1" stop-color="#6deafd"/></linearGradient><linearGradient id="Dégradé_sans_nom_44" x1="379.11" y1="418.27" x2="637.84" y2="-63.12" gradientUnits="userSpaceOnUse"><stop offset="0" stop-color="#0c93f6"/><stop offset="0.53" stop-color="#44c5fa" stop-opacity="0.88"/><stop offset="0.88" stop-color="#6deafd" stop-opacity="0.8"/></linearGradient></defs><title>ICONES 2</title><path class="cls-1" d="M389.58,72.22S419,27.38,454.88,54.9c.89.68,1.77,1.35,2.69,2,4.52,3.17,22.66,18.66,8.6,55.21C450.22,153.6,335.33,375.39,335.33,375.39L285.87,270.08Z" transform="translate(-18.63 -20.43)"/><path class="cls-2" d="M189.49,230.56c-2.9-11.84-5.71-38.73,23.45-51.86a32.82,32.82,0,0,1,12.68-2.84c11.32-.25,33.19,2.59,44.11,26.37,1.2,2.6,3.17,6.84,4.5,9.37l61,116.21a43.56,43.56,0,0,1,3.31,8.17c3.1,10.68,6.8,38-15,52.24a39.5,39.5,0,0,1-17.85,6.12,54.68,54.68,0,0,1-12.61-.23A44.15,44.15,0,0,1,260,370.27L192.79,239.35A39.68,39.68,0,0,1,189.49,230.56Z" transform="translate(-18.63 -20.43)"/><path class="cls-3" d="M250,180.9s-44.25-23.6-68.66,30.89c-5.52,12.31-11,24.63-16.92,36.75l-51.66,106,55.05,84.7,98.72-195.48S288,202.39,250,180.9Z" transform="translate(-18.63 -20.43)"/><path class="cls-4" d="M20.35,296c-2.9-11.84-5.7-38.73,23.46-51.86a32.82,32.82,0,0,1,12.68-2.84c11.31-.25,33.19,2.59,44.11,26.37,1.19,2.6,3.17,6.84,4.5,9.37l61,116.21a43.56,43.56,0,0,1,3.31,8.17c3.1,10.68,6.8,38-15,52.24a39.5,39.5,0,0,1-17.85,6.12,54.76,54.76,0,0,1-12.62-.23,44.17,44.17,0,0,1-33.06-23.84L23.65,304.77A40.7,40.7,0,0,1,20.35,296Z" transform="translate(-18.63 -20.43)"/><path class="cls-5" d="M601.8,86.58c-14.71,38.25-114.17,227.69-129.63,257.05-.25.5-.49,1-.7,1.36l-10.76,21.17A68.85,68.85,0,0,1,443,388.39c-12,9.75-30.46,17.87-51.13,2.07-.89-.68-1.77-1.35-2.69-2-4.52-3.18-22.68-18.65-8.65-55.21,13.22-34.53,97.39-195.06,125.28-248l19.34-38.52,0,0C526,45.58,555,2.2,590.5,29.36c.89.69,1.77,1.36,2.7,2C597.71,34.53,615.86,50,601.8,86.58Z" transform="translate(-18.63 -20.43)"/></svg>